<mxfile host="Electron" agent="Mozilla/5.0 (Macintosh; Intel Mac OS X 10_15_7) AppleWebKit/537.36 (KHTML, like Gecko) draw.io/24.7.17 Chrome/128.0.6613.36 Electron/32.0.1 Safari/537.36" version="24.7.17">
  <diagram name="Page-1" id="o7d_l9rEFAbDWQx9tQcT">
    <mxGraphModel dx="1244" dy="851" grid="1" gridSize="10" guides="1" tooltips="1" connect="1" arrows="1" fold="1" page="1" pageScale="1" pageWidth="850" pageHeight="1100" math="1" shadow="0">
      <root>
        <mxCell id="0" />
        <mxCell id="1" parent="0" />
        <mxCell id="H6wcMH0bgr71Bk92z9qr-4" value="" style="group" vertex="1" connectable="0" parent="1">
          <mxGeometry x="40" y="40" width="611" height="320" as="geometry" />
        </mxCell>
        <mxCell id="pZ9tJHDrhh_KwONNmrHl-36" value="" style="group" parent="H6wcMH0bgr71Bk92z9qr-4" vertex="1" connectable="0">
          <mxGeometry width="180" height="229" as="geometry" />
        </mxCell>
        <mxCell id="pZ9tJHDrhh_KwONNmrHl-4" style="rounded=0;orthogonalLoop=1;jettySize=auto;html=1;exitX=1;exitY=1;exitDx=0;exitDy=0;entryX=0.5;entryY=0;entryDx=0;entryDy=0;endArrow=none;endFill=0;strokeWidth=2;" parent="pZ9tJHDrhh_KwONNmrHl-36" source="pZ9tJHDrhh_KwONNmrHl-2" target="pZ9tJHDrhh_KwONNmrHl-3" edge="1">
          <mxGeometry relative="1" as="geometry" />
        </mxCell>
        <mxCell id="pZ9tJHDrhh_KwONNmrHl-10" style="edgeStyle=none;shape=connector;rounded=0;orthogonalLoop=1;jettySize=auto;html=1;exitX=0;exitY=1;exitDx=0;exitDy=0;entryX=1;entryY=0.5;entryDx=0;entryDy=0;strokeColor=default;strokeWidth=2;align=center;verticalAlign=middle;fontFamily=Helvetica;fontSize=11;fontColor=default;labelBackgroundColor=default;endArrow=none;endFill=0;" parent="pZ9tJHDrhh_KwONNmrHl-36" source="pZ9tJHDrhh_KwONNmrHl-2" target="pZ9tJHDrhh_KwONNmrHl-6" edge="1">
          <mxGeometry relative="1" as="geometry" />
        </mxCell>
        <mxCell id="pZ9tJHDrhh_KwONNmrHl-2" value="+1" style="ellipse;whiteSpace=wrap;html=1;aspect=fixed;fillColor=#d5e8d4;strokeColor=#82b366;gradientColor=#97d077;strokeWidth=2;fontSize=14;" parent="pZ9tJHDrhh_KwONNmrHl-36" vertex="1">
          <mxGeometry x="30" y="70" width="40" height="40" as="geometry" />
        </mxCell>
        <mxCell id="pZ9tJHDrhh_KwONNmrHl-14" style="edgeStyle=none;shape=connector;rounded=0;orthogonalLoop=1;jettySize=auto;html=1;exitX=0;exitY=1;exitDx=0;exitDy=0;entryX=1;entryY=0.5;entryDx=0;entryDy=0;strokeColor=default;strokeWidth=2;align=center;verticalAlign=middle;fontFamily=Helvetica;fontSize=11;fontColor=default;labelBackgroundColor=default;endArrow=none;endFill=0;" parent="pZ9tJHDrhh_KwONNmrHl-36" source="pZ9tJHDrhh_KwONNmrHl-3" target="pZ9tJHDrhh_KwONNmrHl-12" edge="1">
          <mxGeometry relative="1" as="geometry" />
        </mxCell>
        <mxCell id="pZ9tJHDrhh_KwONNmrHl-15" style="edgeStyle=none;shape=connector;rounded=0;orthogonalLoop=1;jettySize=auto;html=1;exitX=1;exitY=1;exitDx=0;exitDy=0;entryX=1;entryY=0.5;entryDx=0;entryDy=0;strokeColor=default;strokeWidth=2;align=center;verticalAlign=middle;fontFamily=Helvetica;fontSize=11;fontColor=default;labelBackgroundColor=default;endArrow=none;endFill=0;" parent="pZ9tJHDrhh_KwONNmrHl-36" source="pZ9tJHDrhh_KwONNmrHl-3" target="pZ9tJHDrhh_KwONNmrHl-13" edge="1">
          <mxGeometry relative="1" as="geometry" />
        </mxCell>
        <mxCell id="pZ9tJHDrhh_KwONNmrHl-3" value="0" style="ellipse;whiteSpace=wrap;html=1;aspect=fixed;fillColor=#d5e8d4;strokeColor=#82b366;gradientColor=#97d077;strokeWidth=2;fontSize=14;" parent="pZ9tJHDrhh_KwONNmrHl-36" vertex="1">
          <mxGeometry x="60" y="130" width="40" height="40" as="geometry" />
        </mxCell>
        <mxCell id="pZ9tJHDrhh_KwONNmrHl-6" value="h&lt;div style=&quot;font-size: 14px;&quot;&gt;&lt;br style=&quot;font-size: 14px;&quot;&gt;&lt;/div&gt;" style="triangle;whiteSpace=wrap;html=1;fontFamily=Helvetica;fontSize=14;fontColor=default;labelBackgroundColor=none;rotation=-90;textDirection=vertical-lr;strokeWidth=2;" parent="pZ9tJHDrhh_KwONNmrHl-36" vertex="1">
          <mxGeometry y="130" width="39" height="39" as="geometry" />
        </mxCell>
        <mxCell id="pZ9tJHDrhh_KwONNmrHl-12" value="h&lt;div style=&quot;font-size: 14px;&quot;&gt;&lt;br style=&quot;font-size: 14px;&quot;&gt;&lt;/div&gt;" style="triangle;whiteSpace=wrap;html=1;fontFamily=Helvetica;fontSize=14;fontColor=default;labelBackgroundColor=none;rotation=-90;textDirection=vertical-lr;strokeWidth=2;" parent="pZ9tJHDrhh_KwONNmrHl-36" vertex="1">
          <mxGeometry x="31" y="190" width="39" height="39" as="geometry" />
        </mxCell>
        <mxCell id="pZ9tJHDrhh_KwONNmrHl-13" value="h&lt;div style=&quot;font-size: 14px;&quot;&gt;&lt;br style=&quot;font-size: 14px;&quot;&gt;&lt;/div&gt;" style="triangle;whiteSpace=wrap;html=1;fontFamily=Helvetica;fontSize=14;fontColor=default;labelBackgroundColor=none;rotation=-90;textDirection=vertical-lr;strokeWidth=2;" parent="pZ9tJHDrhh_KwONNmrHl-36" vertex="1">
          <mxGeometry x="90" y="190" width="39" height="39" as="geometry" />
        </mxCell>
        <mxCell id="pZ9tJHDrhh_KwONNmrHl-16" value="P" style="text;html=1;align=center;verticalAlign=middle;whiteSpace=wrap;rounded=0;fontFamily=Times New Roman;fontSize=17;fontColor=default;labelBackgroundColor=default;fontStyle=3" parent="pZ9tJHDrhh_KwONNmrHl-36" vertex="1">
          <mxGeometry x="70" y="60" width="20" height="30" as="geometry" />
        </mxCell>
        <mxCell id="pZ9tJHDrhh_KwONNmrHl-17" value="Q" style="text;html=1;align=center;verticalAlign=middle;whiteSpace=wrap;rounded=0;fontFamily=Times New Roman;fontSize=17;fontColor=default;labelBackgroundColor=default;fontStyle=3" parent="pZ9tJHDrhh_KwONNmrHl-36" vertex="1">
          <mxGeometry x="100" y="120" width="20" height="30" as="geometry" />
        </mxCell>
        <mxCell id="pZ9tJHDrhh_KwONNmrHl-32" style="edgeStyle=none;shape=connector;rounded=0;orthogonalLoop=1;jettySize=auto;html=1;exitX=0;exitY=1;exitDx=0;exitDy=0;entryX=0.5;entryY=0;entryDx=0;entryDy=0;strokeColor=#B3B3B3;strokeWidth=2;align=center;verticalAlign=middle;fontFamily=Helvetica;fontSize=11;fontColor=default;labelBackgroundColor=default;endArrow=none;endFill=0;" parent="pZ9tJHDrhh_KwONNmrHl-36" source="pZ9tJHDrhh_KwONNmrHl-31" target="pZ9tJHDrhh_KwONNmrHl-2" edge="1">
          <mxGeometry relative="1" as="geometry" />
        </mxCell>
        <mxCell id="pZ9tJHDrhh_KwONNmrHl-31" value="" style="ellipse;whiteSpace=wrap;html=1;aspect=fixed;fillColor=#f5f5f5;strokeColor=#B3B3B3;gradientColor=#b3b3b3;strokeWidth=2;fontSize=14;" parent="pZ9tJHDrhh_KwONNmrHl-36" vertex="1">
          <mxGeometry x="70" y="10" width="40" height="40" as="geometry" />
        </mxCell>
        <mxCell id="pZ9tJHDrhh_KwONNmrHl-33" value="" style="ellipse;shape=cloud;whiteSpace=wrap;html=1;fontFamily=Helvetica;fontSize=11;fontColor=#333333;labelBackgroundColor=default;dashed=1;dashPattern=1 2;strokeColor=#666666;fillColor=#f5f5f5;" parent="pZ9tJHDrhh_KwONNmrHl-36" vertex="1">
          <mxGeometry x="110" y="50" width="70" height="80" as="geometry" />
        </mxCell>
        <mxCell id="pZ9tJHDrhh_KwONNmrHl-34" style="edgeStyle=none;shape=connector;rounded=0;orthogonalLoop=1;jettySize=auto;html=1;exitX=1;exitY=1;exitDx=0;exitDy=0;entryX=0.25;entryY=0.25;entryDx=0;entryDy=0;entryPerimeter=0;strokeColor=#B3B3B3;strokeWidth=2;align=center;verticalAlign=middle;fontFamily=Helvetica;fontSize=11;fontColor=default;labelBackgroundColor=default;endArrow=none;endFill=0;" parent="pZ9tJHDrhh_KwONNmrHl-36" source="pZ9tJHDrhh_KwONNmrHl-31" target="pZ9tJHDrhh_KwONNmrHl-33" edge="1">
          <mxGeometry relative="1" as="geometry" />
        </mxCell>
        <mxCell id="pZ9tJHDrhh_KwONNmrHl-35" value="G" style="text;html=1;align=center;verticalAlign=middle;whiteSpace=wrap;rounded=0;fontFamily=Times New Roman;fontSize=17;fontColor=#000000;labelBackgroundColor=default;fontStyle=3;strokeColor=none;" parent="pZ9tJHDrhh_KwONNmrHl-36" vertex="1">
          <mxGeometry x="109" width="20" height="30" as="geometry" />
        </mxCell>
        <mxCell id="pZ9tJHDrhh_KwONNmrHl-76" value="&lt;font style=&quot;font-size: 16px;&quot;&gt;&lt;b&gt;(a)&lt;/b&gt;&lt;/font&gt;" style="text;html=1;align=center;verticalAlign=middle;whiteSpace=wrap;rounded=0;fontFamily=Helvetica;fontSize=11;fontColor=default;labelBackgroundColor=default;" parent="H6wcMH0bgr71Bk92z9qr-4" vertex="1">
          <mxGeometry x="60" y="290" width="60" height="30" as="geometry" />
        </mxCell>
        <mxCell id="pZ9tJHDrhh_KwONNmrHl-78" value="&lt;font style=&quot;font-size: 16px;&quot;&gt;&lt;b&gt;(c)&lt;/b&gt;&lt;/font&gt;" style="text;html=1;align=center;verticalAlign=middle;whiteSpace=wrap;rounded=0;fontFamily=Helvetica;fontSize=11;fontColor=default;labelBackgroundColor=default;" parent="H6wcMH0bgr71Bk92z9qr-4" vertex="1">
          <mxGeometry x="465.5" y="290" width="60" height="30" as="geometry" />
        </mxCell>
        <mxCell id="pZ9tJHDrhh_KwONNmrHl-79" value="" style="group" parent="H6wcMH0bgr71Bk92z9qr-4" vertex="1" connectable="0">
          <mxGeometry x="380" width="231" height="230.5" as="geometry" />
        </mxCell>
        <mxCell id="pZ9tJHDrhh_KwONNmrHl-58" value="&lt;div style=&quot;font-size: 13px;&quot;&gt;h+1&lt;br&gt;&lt;br&gt;&lt;br&gt;&lt;br&gt;&lt;br&gt;&lt;br&gt;&lt;/div&gt;" style="triangle;whiteSpace=wrap;html=1;fontFamily=Helvetica;fontSize=14;labelBackgroundColor=none;rotation=-90;textDirection=vertical-lr;strokeWidth=2;align=center;verticalAlign=middle;" parent="pZ9tJHDrhh_KwONNmrHl-79" vertex="1">
          <mxGeometry x="109" y="150" width="101" height="60" as="geometry" />
        </mxCell>
        <mxCell id="pZ9tJHDrhh_KwONNmrHl-59" style="rounded=0;orthogonalLoop=1;jettySize=auto;html=1;exitX=1;exitY=1;exitDx=0;exitDy=0;endArrow=none;endFill=0;strokeWidth=2;entryX=1;entryY=0.5;entryDx=0;entryDy=0;" parent="pZ9tJHDrhh_KwONNmrHl-79" source="pZ9tJHDrhh_KwONNmrHl-61" target="pZ9tJHDrhh_KwONNmrHl-58" edge="1">
          <mxGeometry relative="1" as="geometry">
            <mxPoint x="110" y="110" as="targetPoint" />
          </mxGeometry>
        </mxCell>
        <mxCell id="pZ9tJHDrhh_KwONNmrHl-60" style="edgeStyle=none;shape=connector;rounded=0;orthogonalLoop=1;jettySize=auto;html=1;exitX=0;exitY=1;exitDx=0;exitDy=0;strokeColor=default;strokeWidth=2;align=center;verticalAlign=middle;fontFamily=Helvetica;fontSize=11;fontColor=default;labelBackgroundColor=default;endArrow=none;endFill=0;entryX=0.5;entryY=0;entryDx=0;entryDy=0;" parent="pZ9tJHDrhh_KwONNmrHl-79" source="pZ9tJHDrhh_KwONNmrHl-61" target="pZ9tJHDrhh_KwONNmrHl-64" edge="1">
          <mxGeometry relative="1" as="geometry">
            <mxPoint x="50" y="120" as="targetPoint" />
          </mxGeometry>
        </mxCell>
        <mxCell id="pZ9tJHDrhh_KwONNmrHl-62" style="edgeStyle=none;shape=connector;rounded=0;orthogonalLoop=1;jettySize=auto;html=1;exitX=0;exitY=1;exitDx=0;exitDy=0;entryX=1;entryY=0.5;entryDx=0;entryDy=0;strokeColor=default;strokeWidth=2;align=center;verticalAlign=middle;fontFamily=Helvetica;fontSize=11;fontColor=default;labelBackgroundColor=default;endArrow=none;endFill=0;" parent="pZ9tJHDrhh_KwONNmrHl-79" source="pZ9tJHDrhh_KwONNmrHl-64" target="pZ9tJHDrhh_KwONNmrHl-66" edge="1">
          <mxGeometry relative="1" as="geometry" />
        </mxCell>
        <mxCell id="pZ9tJHDrhh_KwONNmrHl-63" style="edgeStyle=none;shape=connector;rounded=0;orthogonalLoop=1;jettySize=auto;html=1;exitX=1;exitY=1;exitDx=0;exitDy=0;strokeColor=default;strokeWidth=2;align=center;verticalAlign=middle;fontFamily=Helvetica;fontSize=11;fontColor=default;labelBackgroundColor=default;endArrow=none;endFill=0;entryX=1;entryY=0.5;entryDx=0;entryDy=0;" parent="pZ9tJHDrhh_KwONNmrHl-79" source="pZ9tJHDrhh_KwONNmrHl-64" target="pZ9tJHDrhh_KwONNmrHl-65" edge="1">
          <mxGeometry relative="1" as="geometry">
            <mxPoint x="160" y="200" as="targetPoint" />
          </mxGeometry>
        </mxCell>
        <mxCell id="pZ9tJHDrhh_KwONNmrHl-64" value="0" style="ellipse;whiteSpace=wrap;html=1;aspect=fixed;fillColor=#d5e8d4;strokeColor=#82b366;gradientColor=#97d077;strokeWidth=2;fontSize=14;" parent="pZ9tJHDrhh_KwONNmrHl-79" vertex="1">
          <mxGeometry x="30" y="130" width="40" height="40" as="geometry" />
        </mxCell>
        <mxCell id="pZ9tJHDrhh_KwONNmrHl-65" value="h&lt;div style=&quot;font-size: 14px;&quot;&gt;&lt;br style=&quot;font-size: 14px;&quot;&gt;&lt;/div&gt;" style="triangle;whiteSpace=wrap;html=1;fontFamily=Helvetica;fontSize=14;fontColor=default;labelBackgroundColor=none;rotation=-90;textDirection=vertical-lr;strokeWidth=2;" parent="pZ9tJHDrhh_KwONNmrHl-79" vertex="1">
          <mxGeometry x="60" y="190" width="39" height="39" as="geometry" />
        </mxCell>
        <mxCell id="pZ9tJHDrhh_KwONNmrHl-66" value="h&lt;div style=&quot;font-size: 14px;&quot;&gt;&lt;br style=&quot;font-size: 14px;&quot;&gt;&lt;/div&gt;" style="triangle;whiteSpace=wrap;html=1;fontFamily=Helvetica;fontSize=14;fontColor=default;labelBackgroundColor=none;rotation=-90;textDirection=vertical-lr;strokeWidth=2;" parent="pZ9tJHDrhh_KwONNmrHl-79" vertex="1">
          <mxGeometry y="190" width="39" height="39" as="geometry" />
        </mxCell>
        <mxCell id="pZ9tJHDrhh_KwONNmrHl-67" value="P" style="text;html=1;align=center;verticalAlign=middle;whiteSpace=wrap;rounded=0;fontFamily=Times New Roman;fontSize=17;fontColor=default;labelBackgroundColor=default;fontStyle=3" parent="pZ9tJHDrhh_KwONNmrHl-79" vertex="1">
          <mxGeometry x="10" y="120" width="20" height="30" as="geometry" />
        </mxCell>
        <mxCell id="pZ9tJHDrhh_KwONNmrHl-69" style="edgeStyle=none;shape=connector;rounded=0;orthogonalLoop=1;jettySize=auto;html=1;exitX=0;exitY=1;exitDx=0;exitDy=0;entryX=0.5;entryY=0;entryDx=0;entryDy=0;strokeColor=#B3B3B3;strokeWidth=2;align=center;verticalAlign=middle;fontFamily=Helvetica;fontSize=11;fontColor=default;labelBackgroundColor=default;endArrow=none;endFill=0;" parent="pZ9tJHDrhh_KwONNmrHl-79" source="pZ9tJHDrhh_KwONNmrHl-70" target="pZ9tJHDrhh_KwONNmrHl-61" edge="1">
          <mxGeometry relative="1" as="geometry" />
        </mxCell>
        <mxCell id="pZ9tJHDrhh_KwONNmrHl-71" value="" style="ellipse;shape=cloud;whiteSpace=wrap;html=1;fontFamily=Helvetica;fontSize=11;fontColor=#333333;labelBackgroundColor=default;dashed=1;dashPattern=1 2;strokeColor=#666666;fillColor=#f5f5f5;" parent="pZ9tJHDrhh_KwONNmrHl-79" vertex="1">
          <mxGeometry x="161" y="50" width="70" height="80" as="geometry" />
        </mxCell>
        <mxCell id="pZ9tJHDrhh_KwONNmrHl-72" style="edgeStyle=none;shape=connector;rounded=0;orthogonalLoop=1;jettySize=auto;html=1;exitX=1;exitY=1;exitDx=0;exitDy=0;entryX=0.25;entryY=0.25;entryDx=0;entryDy=0;entryPerimeter=0;strokeColor=#B3B3B3;strokeWidth=2;align=center;verticalAlign=middle;fontFamily=Helvetica;fontSize=11;fontColor=default;labelBackgroundColor=default;endArrow=none;endFill=0;" parent="pZ9tJHDrhh_KwONNmrHl-79" source="pZ9tJHDrhh_KwONNmrHl-70" target="pZ9tJHDrhh_KwONNmrHl-71" edge="1">
          <mxGeometry relative="1" as="geometry" />
        </mxCell>
        <mxCell id="pZ9tJHDrhh_KwONNmrHl-74" value="" style="group" parent="pZ9tJHDrhh_KwONNmrHl-79" vertex="1" connectable="0">
          <mxGeometry x="81" y="60" width="59" height="50" as="geometry" />
        </mxCell>
        <mxCell id="pZ9tJHDrhh_KwONNmrHl-61" value="0" style="ellipse;whiteSpace=wrap;html=1;aspect=fixed;fillColor=#d5e8d4;strokeColor=#82b366;gradientColor=#97d077;strokeWidth=2;fontSize=14;" parent="pZ9tJHDrhh_KwONNmrHl-74" vertex="1">
          <mxGeometry y="10" width="40" height="40" as="geometry" />
        </mxCell>
        <mxCell id="pZ9tJHDrhh_KwONNmrHl-68" value="Q" style="text;html=1;align=center;verticalAlign=middle;whiteSpace=wrap;rounded=0;fontFamily=Times New Roman;fontSize=17;fontColor=default;labelBackgroundColor=default;fontStyle=3" parent="pZ9tJHDrhh_KwONNmrHl-74" vertex="1">
          <mxGeometry x="39" width="20" height="30" as="geometry" />
        </mxCell>
        <mxCell id="pZ9tJHDrhh_KwONNmrHl-75" value="" style="group;fontColor=#B3B3B3;" parent="pZ9tJHDrhh_KwONNmrHl-79" vertex="1" connectable="0">
          <mxGeometry x="121" width="59" height="50" as="geometry" />
        </mxCell>
        <mxCell id="pZ9tJHDrhh_KwONNmrHl-70" value="" style="ellipse;whiteSpace=wrap;html=1;aspect=fixed;fillColor=#f5f5f5;strokeColor=#B3B3B3;gradientColor=#b3b3b3;strokeWidth=2;fontSize=14;align=center;verticalAlign=middle;fontFamily=Helvetica;fontColor=default;" parent="pZ9tJHDrhh_KwONNmrHl-75" vertex="1">
          <mxGeometry y="10" width="40" height="40" as="geometry" />
        </mxCell>
        <mxCell id="pZ9tJHDrhh_KwONNmrHl-73" value="G" style="text;html=1;align=center;verticalAlign=middle;whiteSpace=wrap;rounded=0;fontFamily=Times New Roman;fontSize=17;fontColor=#000000;labelBackgroundColor=default;fontStyle=3" parent="pZ9tJHDrhh_KwONNmrHl-75" vertex="1">
          <mxGeometry x="39" width="20" height="30" as="geometry" />
        </mxCell>
        <mxCell id="H6wcMH0bgr71Bk92z9qr-2" value="" style="group" vertex="1" connectable="0" parent="H6wcMH0bgr71Bk92z9qr-4">
          <mxGeometry x="190" width="180" height="320" as="geometry" />
        </mxCell>
        <mxCell id="H6wcMH0bgr71Bk92z9qr-1" value="" style="shape=flexArrow;endArrow=classic;html=1;rounded=0;fillColor=#ffcccc;strokeColor=none;opacity=50;" edge="1" parent="H6wcMH0bgr71Bk92z9qr-2">
          <mxGeometry width="50" height="50" relative="1" as="geometry">
            <mxPoint x="10" y="30" as="sourcePoint" />
            <mxPoint x="170" y="310" as="targetPoint" />
          </mxGeometry>
        </mxCell>
        <mxCell id="pZ9tJHDrhh_KwONNmrHl-37" value="&lt;div style=&quot;font-size: 13px;&quot;&gt;h+1&lt;br&gt;&lt;br&gt;&lt;br&gt;&lt;br&gt;&lt;br&gt;&lt;br&gt;&lt;/div&gt;" style="triangle;whiteSpace=wrap;html=1;fontFamily=Helvetica;fontSize=14;labelBackgroundColor=none;rotation=-90;textDirection=vertical-lr;strokeWidth=2;fillColor=#dae8fc;gradientColor=#7ea6e0;strokeColor=#6c8ebf;" parent="H6wcMH0bgr71Bk92z9qr-2" vertex="1">
          <mxGeometry x="70.5" y="209.5" width="101" height="60" as="geometry" />
        </mxCell>
        <mxCell id="pZ9tJHDrhh_KwONNmrHl-40" style="rounded=0;orthogonalLoop=1;jettySize=auto;html=1;exitX=1;exitY=1;exitDx=0;exitDy=0;entryX=0.5;entryY=0;entryDx=0;entryDy=0;endArrow=none;endFill=0;strokeWidth=2;" parent="H6wcMH0bgr71Bk92z9qr-2" source="pZ9tJHDrhh_KwONNmrHl-42" target="pZ9tJHDrhh_KwONNmrHl-45" edge="1">
          <mxGeometry relative="1" as="geometry" />
        </mxCell>
        <mxCell id="pZ9tJHDrhh_KwONNmrHl-41" style="edgeStyle=none;shape=connector;rounded=0;orthogonalLoop=1;jettySize=auto;html=1;exitX=0;exitY=1;exitDx=0;exitDy=0;entryX=1;entryY=0.5;entryDx=0;entryDy=0;strokeColor=default;strokeWidth=2;align=center;verticalAlign=middle;fontFamily=Helvetica;fontSize=11;fontColor=default;labelBackgroundColor=default;endArrow=none;endFill=0;" parent="H6wcMH0bgr71Bk92z9qr-2" source="pZ9tJHDrhh_KwONNmrHl-42" target="pZ9tJHDrhh_KwONNmrHl-46" edge="1">
          <mxGeometry relative="1" as="geometry" />
        </mxCell>
        <mxCell id="pZ9tJHDrhh_KwONNmrHl-42" value="+2" style="ellipse;whiteSpace=wrap;html=1;aspect=fixed;fillColor=#f8cecc;strokeColor=#b85450;gradientColor=#ea6b66;strokeWidth=2;fontSize=14;" parent="H6wcMH0bgr71Bk92z9qr-2" vertex="1">
          <mxGeometry x="30" y="70" width="40" height="40" as="geometry" />
        </mxCell>
        <mxCell id="pZ9tJHDrhh_KwONNmrHl-43" style="edgeStyle=none;shape=connector;rounded=0;orthogonalLoop=1;jettySize=auto;html=1;exitX=0;exitY=1;exitDx=0;exitDy=0;entryX=1;entryY=0.5;entryDx=0;entryDy=0;strokeColor=default;strokeWidth=2;align=center;verticalAlign=middle;fontFamily=Helvetica;fontSize=11;fontColor=default;labelBackgroundColor=default;endArrow=none;endFill=0;" parent="H6wcMH0bgr71Bk92z9qr-2" source="pZ9tJHDrhh_KwONNmrHl-45" target="pZ9tJHDrhh_KwONNmrHl-47" edge="1">
          <mxGeometry relative="1" as="geometry" />
        </mxCell>
        <mxCell id="pZ9tJHDrhh_KwONNmrHl-44" style="edgeStyle=none;shape=connector;rounded=0;orthogonalLoop=1;jettySize=auto;html=1;exitX=1;exitY=1;exitDx=0;exitDy=0;entryX=1;entryY=0.5;entryDx=0;entryDy=0;strokeColor=default;strokeWidth=2;align=center;verticalAlign=middle;fontFamily=Helvetica;fontSize=11;fontColor=default;labelBackgroundColor=default;endArrow=none;endFill=0;" parent="H6wcMH0bgr71Bk92z9qr-2" source="pZ9tJHDrhh_KwONNmrHl-45" target="pZ9tJHDrhh_KwONNmrHl-37" edge="1">
          <mxGeometry relative="1" as="geometry">
            <mxPoint x="109.5" y="190" as="targetPoint" />
          </mxGeometry>
        </mxCell>
        <mxCell id="pZ9tJHDrhh_KwONNmrHl-45" value="+1" style="ellipse;whiteSpace=wrap;html=1;aspect=fixed;fillColor=#fff2cc;strokeColor=#d6b656;gradientColor=#ffd966;strokeWidth=2;fontSize=14;" parent="H6wcMH0bgr71Bk92z9qr-2" vertex="1">
          <mxGeometry x="60" y="130" width="40" height="40" as="geometry" />
        </mxCell>
        <mxCell id="pZ9tJHDrhh_KwONNmrHl-46" value="h&lt;div style=&quot;font-size: 14px;&quot;&gt;&lt;br style=&quot;font-size: 14px;&quot;&gt;&lt;/div&gt;" style="triangle;whiteSpace=wrap;html=1;fontFamily=Helvetica;fontSize=14;fontColor=default;labelBackgroundColor=none;rotation=-90;textDirection=vertical-lr;strokeWidth=2;" parent="H6wcMH0bgr71Bk92z9qr-2" vertex="1">
          <mxGeometry y="130" width="39" height="39" as="geometry" />
        </mxCell>
        <mxCell id="pZ9tJHDrhh_KwONNmrHl-47" value="h&lt;div style=&quot;font-size: 14px;&quot;&gt;&lt;br style=&quot;font-size: 14px;&quot;&gt;&lt;/div&gt;" style="triangle;whiteSpace=wrap;html=1;fontFamily=Helvetica;fontSize=14;fontColor=default;labelBackgroundColor=none;rotation=-90;textDirection=vertical-lr;strokeWidth=2;" parent="H6wcMH0bgr71Bk92z9qr-2" vertex="1">
          <mxGeometry x="31" y="190" width="39" height="39" as="geometry" />
        </mxCell>
        <mxCell id="pZ9tJHDrhh_KwONNmrHl-49" value="P" style="text;html=1;align=center;verticalAlign=middle;whiteSpace=wrap;rounded=0;fontFamily=Times New Roman;fontSize=17;fontColor=default;labelBackgroundColor=default;fontStyle=3" parent="H6wcMH0bgr71Bk92z9qr-2" vertex="1">
          <mxGeometry x="70" y="60" width="20" height="30" as="geometry" />
        </mxCell>
        <mxCell id="pZ9tJHDrhh_KwONNmrHl-50" value="Q" style="text;html=1;align=center;verticalAlign=middle;whiteSpace=wrap;rounded=0;fontFamily=Times New Roman;fontSize=17;fontColor=default;labelBackgroundColor=default;fontStyle=3" parent="H6wcMH0bgr71Bk92z9qr-2" vertex="1">
          <mxGeometry x="100" y="120" width="20" height="30" as="geometry" />
        </mxCell>
        <mxCell id="pZ9tJHDrhh_KwONNmrHl-51" style="edgeStyle=none;shape=connector;rounded=0;orthogonalLoop=1;jettySize=auto;html=1;exitX=0;exitY=1;exitDx=0;exitDy=0;entryX=0.5;entryY=0;entryDx=0;entryDy=0;strokeColor=#B3B3B3;strokeWidth=2;align=center;verticalAlign=middle;fontFamily=Helvetica;fontSize=11;fontColor=default;labelBackgroundColor=default;endArrow=none;endFill=0;" parent="H6wcMH0bgr71Bk92z9qr-2" source="pZ9tJHDrhh_KwONNmrHl-52" target="pZ9tJHDrhh_KwONNmrHl-42" edge="1">
          <mxGeometry relative="1" as="geometry" />
        </mxCell>
        <mxCell id="pZ9tJHDrhh_KwONNmrHl-52" value="" style="ellipse;whiteSpace=wrap;html=1;aspect=fixed;fillColor=#f5f5f5;strokeColor=#B3B3B3;gradientColor=#b3b3b3;strokeWidth=2;fontSize=14;align=center;verticalAlign=middle;fontFamily=Helvetica;fontColor=default;" parent="H6wcMH0bgr71Bk92z9qr-2" vertex="1">
          <mxGeometry x="70" y="10" width="40" height="40" as="geometry" />
        </mxCell>
        <mxCell id="pZ9tJHDrhh_KwONNmrHl-53" value="" style="ellipse;shape=cloud;whiteSpace=wrap;html=1;fontFamily=Helvetica;fontSize=11;fontColor=#333333;labelBackgroundColor=default;dashed=1;dashPattern=1 2;strokeColor=#666666;fillColor=#f5f5f5;" parent="H6wcMH0bgr71Bk92z9qr-2" vertex="1">
          <mxGeometry x="110" y="50" width="70" height="80" as="geometry" />
        </mxCell>
        <mxCell id="pZ9tJHDrhh_KwONNmrHl-54" style="edgeStyle=none;shape=connector;rounded=0;orthogonalLoop=1;jettySize=auto;html=1;exitX=1;exitY=1;exitDx=0;exitDy=0;entryX=0.25;entryY=0.25;entryDx=0;entryDy=0;entryPerimeter=0;strokeColor=#B3B3B3;strokeWidth=2;align=center;verticalAlign=middle;fontFamily=Helvetica;fontSize=11;fontColor=default;labelBackgroundColor=default;endArrow=none;endFill=0;" parent="H6wcMH0bgr71Bk92z9qr-2" source="pZ9tJHDrhh_KwONNmrHl-52" target="pZ9tJHDrhh_KwONNmrHl-53" edge="1">
          <mxGeometry relative="1" as="geometry" />
        </mxCell>
        <mxCell id="pZ9tJHDrhh_KwONNmrHl-55" value="G" style="text;html=1;align=center;verticalAlign=middle;whiteSpace=wrap;rounded=0;fontFamily=Times New Roman;fontSize=17;fontColor=#000000;labelBackgroundColor=default;fontStyle=3" parent="H6wcMH0bgr71Bk92z9qr-2" vertex="1">
          <mxGeometry x="109" width="20" height="30" as="geometry" />
        </mxCell>
        <mxCell id="pZ9tJHDrhh_KwONNmrHl-77" value="&lt;font style=&quot;font-size: 16px;&quot;&gt;&lt;b&gt;(b)&lt;/b&gt;&lt;/font&gt;" style="text;html=1;align=center;verticalAlign=middle;whiteSpace=wrap;rounded=0;fontFamily=Helvetica;fontSize=11;fontColor=default;labelBackgroundColor=default;" parent="H6wcMH0bgr71Bk92z9qr-2" vertex="1">
          <mxGeometry x="60" y="290" width="60" height="30" as="geometry" />
        </mxCell>
      </root>
    </mxGraphModel>
  </diagram>
</mxfile>
